<?xml version="1.0" standalone="no"?>
<!DOCTYPE svg PUBLIC "-//W3C//DTD SVG 20010904//EN"
 "http://www.w3.org/TR/2001/REC-SVG-20010904/DTD/svg10.dtd">
<svg version="1.0" xmlns="http://www.w3.org/2000/svg"
 width="600.000000pt" height="600.000000pt" viewBox="0 0 600.000000 600.000000"
 preserveAspectRatio="xMidYMid meet">
<metadata>
Created by potrace 1.14, written by Peter Selinger 2001-2017
</metadata>
<g transform="translate(0.000000,600.000000) scale(0.100000,-0.100000)"
fill="#000000" stroke="none">
<path d="M457 5169 c-83 -20 -146 -69 -185 -143 l-26 -51 -8 -520 c-4 -286 -7
-1198 -5 -2027 l2 -1507 21 -28 c12 -15 36 -37 55 -48 34 -20 52 -20 2699 -20
2662 0 2665 0 2700 20 19 12 43 36 55 55 20 35 20 46 23 1615 1 869 -1 1677
-6 1795 -8 191 -11 221 -31 267 -27 61 -83 116 -150 147 l-46 21 -1635 5
c-1504 5 -1637 6 -1665 22 -44 24 -115 103 -175 192 -68 102 -113 151 -169
184 l-46 27 -685 2 c-382 1 -702 -3 -723 -8z m273 -344 c19 -52 38 -91 41 -87
4 4 21 46 39 95 31 82 34 87 61 87 l29 0 0 -130 c0 -123 -1 -130 -20 -130 -18
0 -20 8 -22 93 l-3 92 -34 -92 c-44 -123 -58 -124 -103 -5 l-33 87 -3 -87 c-3
-80 -5 -88 -22 -88 -19 0 -20 8 -20 130 l0 130 28 0 c25 0 29 -7 62 -95z m628
73 c-2 -13 -10 -23 -18 -23 -8 0 -16 10 -18 23 -3 17 2 22 18 22 16 0 21 -5
18 -22z m-289 -53 c58 -29 66 -124 14 -165 -85 -67 -189 31 -137 131 24 47 73
60 123 34z m466 -7 c15 -14 28 -38 32 -60 l5 -37 -71 -3 c-68 -3 -71 -4 -58
-22 17 -23 66 -24 79 -2 5 9 15 16 23 16 26 0 26 -20 1 -45 -34 -34 -93 -35
-124 -2 -82 87 24 232 113 155z m188 -9 c9 -12 17 -25 17 -30 0 -15 -37 -10
-50 6 -15 18 -51 16 -57 -2 -3 -7 13 -17 39 -23 56 -15 68 -26 68 -61 0 -40
-24 -59 -76 -59 -46 0 -84 25 -84 55 0 8 9 15 20 15 11 0 20 -4 20 -10 0 -15
35 -29 58 -23 37 9 25 32 -24 44 -55 14 -81 46 -64 79 23 44 99 49 133 9z
m-528 -49 l22 -65 22 68 c17 52 27 67 42 67 10 0 19 -3 19 -6 0 -4 -15 -47
-32 -96 -43 -118 -59 -117 -105 1 -39 100 -39 103 -11 99 17 -2 26 -17 43 -68z
m165 -26 c0 -86 -2 -95 -17 -92 -15 3 -18 17 -21 96 -3 87 -2 92 18 92 19 0
20 -6 20 -96z m1667 -876 c4 -7 8 -30 9 -51 1 -21 4 -41 7 -43 2 -3 26 3 53
12 94 32 174 16 174 -36 0 -15 7 -17 48 -13 60 6 104 24 97 40 -2 7 -1 13 3
14 4 0 22 2 39 5 27 3 36 -1 50 -24 37 -57 87 -83 169 -87 35 -2 78 -10 96
-18 18 -8 69 -27 113 -43 162 -57 213 -150 127 -232 -29 -27 -29 -28 -148
-800 -65 -425 -122 -778 -126 -785 -14 -21 -28 14 -28 72 0 55 85 1266 96
1360 l6 54 -31 -6 c-17 -4 -61 -12 -96 -19 -53 -9 -66 -15 -70 -32 -2 -12 -9
-294 -16 -628 -9 -420 -16 -608 -23 -608 -6 1 -64 51 -129 113 l-119 112 14
498 13 497 -132 0 -133 0 0 -67 c0 -64 16 -573 23 -711 2 -40 -1 -62 -8 -60
-5 2 -64 32 -131 67 l-121 65 -7 190 c-3 105 -9 263 -13 352 l-6 161 -121 11
c-67 5 -122 9 -124 7 -2 -1 8 -139 21 -306 13 -167 22 -307 20 -311 -2 -4 -21
-1 -41 7 -20 8 -79 26 -131 39 -51 14 -95 27 -96 28 -1 2 -13 136 -26 298
l-24 295 -65 21 c-85 27 -123 47 -171 91 -32 29 -39 42 -39 73 0 27 8 48 25
69 30 35 140 112 149 104 3 -3 12 0 21 7 8 7 22 10 31 6 22 -9 147 25 161 43
6 9 14 28 17 43 7 36 42 46 67 19 11 -12 30 -21 43 -21 13 0 29 -7 36 -15 24
-29 70 -11 70 27 0 27 29 22 42 -7 11 -25 28 -34 28 -15 0 6 12 15 26 21 21 7
31 6 44 -6 20 -18 30 -19 30 -3 0 23 43 58 72 58 17 0 28 5 28 14 0 19 57 66
80 66 10 0 22 -6 27 -12z m-967 -1203 c0 -16 -27 -32 -37 -22 -3 4 -3 13 0 22
8 20 37 20 37 0z m90 -5 c-12 -22 -40 -27 -40 -7 0 19 10 27 32 27 16 0 17 -3
8 -20z m104 11 c10 -15 -20 -45 -38 -38 -14 5 -15 11 -6 27 11 20 35 27 44 11z
m-294 -31 c-12 -23 -30 -27 -30 -7 0 17 10 27 27 27 11 0 11 -5 3 -20z m400
14 c0 -21 -22 -42 -40 -37 -16 4 -18 9 -9 24 9 17 49 28 49 13z m-470 -20 c0
-15 -22 -44 -31 -39 -11 7 7 45 21 45 6 0 10 -3 10 -6z m565 -20 c0 -12 -8
-20 -22 -22 -25 -4 -31 16 -11 36 17 17 33 10 33 -14z m-250 -14 c89 -13 105
-18 105 -35 0 -16 -148 -346 -161 -359 -5 -6 -42 -4 -97 7 -49 9 -108 17 -131
17 -29 0 -43 5 -48 16 -7 19 114 334 136 352 18 14 100 15 196 2z m-395 -21
c-7 -11 -14 -18 -17 -15 -8 8 5 36 17 36 7 0 7 -6 0 -21z m760 9 c0 -23 -16
-39 -33 -32 -17 6 -22 25 -10 37 11 12 43 8 43 -5z m-630 0 c0 -2 -29 -81 -63
-177 l-63 -174 -70 -18 c-38 -10 -80 -21 -93 -25 -19 -6 -23 -4 -19 8 4 8 23
77 45 153 36 131 40 139 75 162 59 39 189 88 188 71z m729 -27 c10 -7 11 -13
2 -30 -13 -23 -19 -25 -40 -12 -10 7 -11 13 -2 30 13 23 19 25 40 12z m-928
-34 c-8 -8 -11 -7 -11 4 0 20 13 34 18 19 3 -7 -1 -17 -7 -23z m864 -39 c55
-22 106 -42 113 -45 6 -3 12 -13 12 -23 0 -30 -170 -370 -185 -370 -8 0 -63
20 -122 44 -59 24 -128 50 -152 57 -23 7 -45 18 -48 25 -4 12 131 313 162 361
15 22 16 22 67 6 29 -8 98 -33 153 -55z m173 9 c4 -20 -25 -34 -39 -20 -14 14
1 45 20 41 9 -2 17 -11 19 -21z m-1084 -2 c-4 -8 -8 -15 -10 -15 -2 0 -4 7 -4
15 0 8 4 15 10 15 5 0 7 -7 4 -15z m1190 -34 c8 -13 -4 -41 -18 -41 -22 0 -37
17 -30 33 7 18 39 23 48 8z m-1240 -152 c-26 -99 -42 -141 -62 -161 -14 -15
-27 -26 -29 -25 -1 2 9 57 23 122 21 102 30 125 61 163 19 23 37 41 39 39 2
-2 -13 -64 -32 -138z m1335 102 c10 -7 11 -13 2 -30 -10 -17 -15 -19 -32 -11
-15 9 -17 15 -9 30 12 22 18 24 39 11z m-17 -94 c59 -33 122 -72 139 -87 l32
-27 -84 -181 c-46 -100 -90 -182 -96 -182 -10 0 -303 152 -323 167 -4 4 149
318 176 360 17 27 20 27 156 -50z m122 34 c3 -4 -1 -17 -9 -27 -10 -15 -16
-16 -26 -7 -6 6 -9 19 -6 27 7 17 32 22 41 7z m90 -60 c9 -14 -4 -41 -19 -41
-18 0 -28 17 -21 35 6 17 32 20 40 6z m90 -60 c9 -14 -4 -41 -19 -41 -18 0
-28 17 -21 35 6 17 32 20 40 6z m-1394 -45 c0 -17 -28 -41 -37 -32 -10 9 16
58 27 51 6 -3 10 -12 10 -19z m-77 -6 c-6 -22 -21 -35 -30 -27 -2 3 -2 15 2
26 8 28 35 28 28 1z m157 7 c0 -24 -24 -47 -39 -38 -10 7 -11 13 -2 30 13 23
41 29 41 8z m-217 -17 c-3 -11 -12 -20 -20 -20 -11 0 -11 4 -3 20 6 11 15 20
19 20 5 0 7 -9 4 -20z m307 3 c0 -15 -23 -43 -35 -43 -18 0 -20 31 -4 47 10
10 39 7 39 -4z m1307 -9 c5 -17 -15 -37 -31 -31 -14 5 -15 11 -6 27 11 21 31
23 37 4z m-1667 -1 c0 -14 -19 -38 -25 -32 -8 8 5 39 16 39 5 0 9 -3 9 -7z
m450 -14 c0 -23 -21 -48 -35 -43 -15 6 -20 35 -8 47 10 11 43 8 43 -4z m1118
-16 c40 -30 192 -151 205 -163 11 -10 -165 -361 -178 -356 -16 6 -255 177
-255 183 0 15 175 363 182 363 5 0 26 -12 46 -27z m-1025 -9 c6 -7 -13 -54
-22 -54 -3 0 -12 4 -20 9 -10 7 -11 13 -2 30 11 20 31 27 44 15z m1189 -36
c-15 -15 -26 -4 -18 18 5 13 9 15 18 6 9 -9 9 -15 0 -24z m-1093 3 c16 -11 -2
-51 -24 -51 -21 0 -27 17 -15 40 12 22 18 24 39 11z m-675 -66 c20 -30 36 -59
36 -65 0 -14 -60 -110 -69 -110 -23 0 -69 74 -82 129 -7 31 -4 38 27 68 20 18
39 33 43 33 5 0 25 -25 45 -55z m6 34 c0 -6 -4 -7 -10 -4 -5 3 -10 11 -10 16
0 6 5 7 10 4 6 -3 10 -11 10 -16z m775 -9 c11 -18 -6 -50 -25 -50 -25 0 -30
10 -19 38 9 23 33 30 44 12z m1063 -22 c-2 -13 -7 -23 -13 -23 -5 0 -11 10
-13 23 -2 15 2 22 13 22 11 0 15 -7 13 -22z m-958 -37 c0 -26 -15 -42 -33 -35
-20 7 -21 18 -7 44 12 22 40 16 40 -9z m-830 -1 c0 -5 -4 -10 -10 -10 -5 0
-10 5 -10 10 0 6 5 10 10 10 6 0 10 -4 10 -10z m1857 -16 c1 -5 -2 -16 -7 -24
-12 -20 -33 0 -24 24 7 17 25 17 31 0z m-930 -15 c8 -8 8 -18 1 -35 -12 -26
-16 -28 -37 -15 -12 8 -13 14 -3 35 13 28 22 32 39 15z m-73 -68 c68 -32 126
-62 129 -67 3 -5 10 -72 16 -149 6 -77 14 -159 16 -181 l6 -42 62 -6 c34 -4
73 -10 86 -13 l24 -6 -7 142 c-4 83 -3 141 2 141 13 0 245 -149 254 -163 4 -7
8 -36 8 -66 l0 -54 79 6 c60 5 82 3 90 -7 18 -21 -30 -26 -256 -26 -257 0
-415 23 -550 81 -52 22 -103 65 -103 86 0 10 -21 13 -82 13 -46 0 -93 3 -105
6 -20 6 -21 8 -8 42 21 60 38 92 47 92 5 0 6 -5 2 -12 -5 -8 2 -9 24 -5 18 4
32 2 32 -3 0 -5 16 -10 37 -12 34 -3 37 -6 50 -53 8 -27 21 -57 29 -65 13 -13
14 -10 9 25 -18 131 -30 355 -20 355 3 0 61 -26 129 -59z m-804 29 c-15 -9 42
-53 132 -103 32 -17 58 -34 58 -37 0 -3 -19 -26 -43 -52 l-42 -47 -71 35 c-39
19 -86 48 -105 63 l-33 28 38 53 c50 69 59 79 70 73 4 -3 3 -9 -4 -13z m1860
-15 c0 -15 -18 -30 -27 -22 -2 3 -2 15 2 26 7 23 25 19 25 -4z m-881 1 c13
-15 -1 -56 -18 -56 -20 0 -32 29 -21 49 13 25 23 26 39 7z m860 -78 c34 -40
64 -84 68 -97 4 -18 -12 -60 -63 -163 -38 -76 -73 -138 -78 -138 -13 0 -186
131 -186 141 0 5 36 81 80 169 62 123 85 160 99 160 12 0 44 -29 80 -72z
m-1764 52 c3 -5 2 -10 -4 -10 -5 0 -13 5 -16 10 -3 6 -2 10 4 10 5 0 13 -4 16
-10z m-265 -10 c0 -5 -5 -10 -11 -10 -5 0 -7 5 -4 10 3 6 8 10 11 10 2 0 4 -4
4 -10z m1275 -20 c7 -11 -11 -50 -23 -50 -20 1 -34 19 -27 39 6 21 39 29 50
11z m825 -4 c0 -16 -18 -31 -27 -22 -8 8 5 36 17 36 5 0 10 -6 10 -14z m-1775
-6 c3 -5 1 -10 -4 -10 -6 0 -11 5 -11 10 0 6 2 10 4 10 3 0 8 -4 11 -10z
m-285 -20 c0 -5 -4 -10 -10 -10 -5 0 -10 5 -10 10 0 6 5 10 10 10 6 0 10 -4
10 -10z m1330 -30 c0 -33 -31 -53 -45 -30 -10 16 14 50 30 44 8 -4 15 -10 15
-14z m785 9 c4 -5 -1 -19 -11 -30 -21 -23 -38 -6 -23 23 11 20 25 23 34 7z
m-2065 -19 c0 -5 -4 -10 -10 -10 -5 0 -10 5 -10 10 0 6 5 10 10 10 6 0 10 -4
10 -10z m437 -45 c49 -14 94 -27 101 -30 9 -3 5 -19 -15 -55 -27 -49 -29 -51
-63 -45 -19 3 -72 17 -118 31 l-84 25 28 37 c45 60 46 62 55 62 5 0 48 -11 96
-25z m-377 -5 c0 -5 -7 -7 -15 -4 -8 4 -12 10 -9 15 6 11 24 2 24 -11z m1310
-2 c0 -23 -16 -39 -33 -32 -22 8 -22 20 1 33 23 14 32 13 32 -1z m748 -13 c-2
-17 -8 -25 -20 -25 -21 0 -24 20 -6 38 19 19 28 14 26 -13z m-1993 -15 c3 -5
-1 -10 -9 -10 -9 0 -16 5 -16 10 0 6 4 10 9 10 6 0 13 -4 16 -10z m2138 -10
c24 0 28 3 17 10 -8 5 -10 10 -4 10 26 0 64 -61 64 -105 0 -14 -100 -35 -164
-35 l-38 0 7 48 c9 60 10 62 46 62 21 0 29 5 30 18 0 10 3 12 6 5 2 -7 19 -13
36 -13z m-809 -33 c-7 -19 -29 -23 -39 -7 -3 5 -1 19 6 31 9 19 13 19 25 7 8
-8 12 -22 8 -31z m-1259 13 c3 -5 -1 -10 -9 -10 -9 0 -16 5 -16 10 0 6 4 10 9
10 6 0 13 -4 16 -10z m1915 -25 c0 -8 -58 -121 -100 -195 -48 -85 -64 -99 -83
-69 -7 11 8 50 62 157 l72 142 25 -16 c13 -9 24 -17 24 -19z m-1840 -5 c0 -5
-7 -10 -15 -10 -8 0 -15 5 -15 10 0 6 7 10 15 10 8 0 15 -4 15 -10z m1267 -16
c2 -5 -3 -19 -11 -29 -21 -28 -43 -7 -26 25 11 21 31 23 37 4z m-1202 -4 c3
-5 -1 -10 -10 -10 -9 0 -13 5 -10 10 3 6 8 10 10 10 2 0 7 -4 10 -10z m85 -26
c0 -2 -7 -4 -15 -4 -8 0 -15 4 -15 10 0 5 7 7 15 4 8 -4 15 -8 15 -10z m70
-14 c0 -5 -7 -10 -15 -10 -8 0 -15 5 -15 10 0 6 7 10 15 10 8 0 15 -4 15 -10z
m75 -10 c3 -5 -1 -10 -9 -10 -9 0 -16 5 -16 10 0 6 4 10 9 10 6 0 13 -4 16
-10z m1045 1 c0 -21 -13 -41 -26 -41 -15 0 -17 10 -8 34 7 17 34 22 34 7z
m-960 -11 c0 -5 -7 -10 -15 -10 -8 0 -15 5 -15 10 0 6 7 10 15 10 8 0 15 -4
15 -10z m75 0 c-3 -5 -10 -10 -16 -10 -5 0 -9 5 -9 10 0 6 7 10 16 10 8 0 12
-4 9 -10z m1582 4 c-3 -3 -12 -4 -19 -1 -8 3 -5 6 6 6 11 1 17 -2 13 -5z
m-157 -14 c0 -5 -7 -10 -16 -10 -8 0 -12 5 -9 10 3 6 10 10 16 10 5 0 9 -4 9
-10z m80 0 c0 -5 -4 -10 -9 -10 -6 0 -13 5 -16 10 -3 6 1 10 9 10 9 0 16 -4
16 -10z m-546 -53 c-7 -19 -29 -23 -39 -7 -3 5 -1 19 6 31 9 19 13 19 25 7 8
-8 12 -22 8 -31z m75 -58 c-5 -10 -14 -19 -19 -19 -16 0 -21 19 -10 40 9 17
14 19 25 10 11 -9 12 -17 4 -31z m78 -35 c2 -5 -3 -19 -11 -29 -21 -29 -43 -6
-24 24 13 21 29 23 35 5z m63 -64 c0 -20 -25 -38 -36 -27 -8 7 15 47 26 47 6
0 10 -9 10 -20z"/>
<path d="M992 4808 c-30 -38 -20 -101 17 -111 49 -12 86 66 51 107 -15 19 -54
21 -68 4z"/>
<path d="M1450 4805 c-18 -22 -9 -27 41 -23 41 3 42 4 25 21 -22 21 -49 22
-66 2z"/>
</g>
</svg>
